%TF.GenerationSoftware,KiCad,Pcbnew,(5.1.6-0-10_14)*%
%TF.CreationDate,2022-05-10T09:10:30-04:00*%
%TF.ProjectId,Delay_Door_Switch-RevB,44656c61-795f-4446-9f6f-725f53776974,rev?*%
%TF.SameCoordinates,Original*%
%TF.FileFunction,Legend,Top*%
%TF.FilePolarity,Positive*%
%FSLAX46Y46*%
G04 Gerber Fmt 4.6, Leading zero omitted, Abs format (unit mm)*
G04 Created by KiCad (PCBNEW (5.1.6-0-10_14)) date 2022-05-10 09:10:30*
%MOMM*%
%LPD*%
G01*
G04 APERTURE LIST*
%ADD10C,0.150000*%
%ADD11C,0.120000*%
G04 APERTURE END LIST*
D10*
X128666666Y-82861904D02*
X128666666Y-82061904D01*
X128857142Y-82061904D01*
X128971428Y-82100000D01*
X129047619Y-82176190D01*
X129085714Y-82252380D01*
X129123809Y-82404761D01*
X129123809Y-82519047D01*
X129085714Y-82671428D01*
X129047619Y-82747619D01*
X128971428Y-82823809D01*
X128857142Y-82861904D01*
X128666666Y-82861904D01*
X129771428Y-82823809D02*
X129695238Y-82861904D01*
X129542857Y-82861904D01*
X129466666Y-82823809D01*
X129428571Y-82747619D01*
X129428571Y-82442857D01*
X129466666Y-82366666D01*
X129542857Y-82328571D01*
X129695238Y-82328571D01*
X129771428Y-82366666D01*
X129809523Y-82442857D01*
X129809523Y-82519047D01*
X129428571Y-82595238D01*
X130266666Y-82861904D02*
X130190476Y-82823809D01*
X130152380Y-82747619D01*
X130152380Y-82061904D01*
X130914285Y-82861904D02*
X130914285Y-82442857D01*
X130876190Y-82366666D01*
X130800000Y-82328571D01*
X130647619Y-82328571D01*
X130571428Y-82366666D01*
X130914285Y-82823809D02*
X130838095Y-82861904D01*
X130647619Y-82861904D01*
X130571428Y-82823809D01*
X130533333Y-82747619D01*
X130533333Y-82671428D01*
X130571428Y-82595238D01*
X130647619Y-82557142D01*
X130838095Y-82557142D01*
X130914285Y-82519047D01*
X131219047Y-82328571D02*
X131409523Y-82861904D01*
X131600000Y-82328571D02*
X131409523Y-82861904D01*
X131333333Y-83052380D01*
X131295238Y-83090476D01*
X131219047Y-83128571D01*
X132514285Y-82861904D02*
X132514285Y-82061904D01*
X132704761Y-82061904D01*
X132819047Y-82100000D01*
X132895238Y-82176190D01*
X132933333Y-82252380D01*
X132971428Y-82404761D01*
X132971428Y-82519047D01*
X132933333Y-82671428D01*
X132895238Y-82747619D01*
X132819047Y-82823809D01*
X132704761Y-82861904D01*
X132514285Y-82861904D01*
X133428571Y-82861904D02*
X133352380Y-82823809D01*
X133314285Y-82785714D01*
X133276190Y-82709523D01*
X133276190Y-82480952D01*
X133314285Y-82404761D01*
X133352380Y-82366666D01*
X133428571Y-82328571D01*
X133542857Y-82328571D01*
X133619047Y-82366666D01*
X133657142Y-82404761D01*
X133695238Y-82480952D01*
X133695238Y-82709523D01*
X133657142Y-82785714D01*
X133619047Y-82823809D01*
X133542857Y-82861904D01*
X133428571Y-82861904D01*
X134152380Y-82861904D02*
X134076190Y-82823809D01*
X134038095Y-82785714D01*
X134000000Y-82709523D01*
X134000000Y-82480952D01*
X134038095Y-82404761D01*
X134076190Y-82366666D01*
X134152380Y-82328571D01*
X134266666Y-82328571D01*
X134342857Y-82366666D01*
X134380952Y-82404761D01*
X134419047Y-82480952D01*
X134419047Y-82709523D01*
X134380952Y-82785714D01*
X134342857Y-82823809D01*
X134266666Y-82861904D01*
X134152380Y-82861904D01*
X134761904Y-82861904D02*
X134761904Y-82328571D01*
X134761904Y-82480952D02*
X134800000Y-82404761D01*
X134838095Y-82366666D01*
X134914285Y-82328571D01*
X134990476Y-82328571D01*
X135828571Y-82823809D02*
X135942857Y-82861904D01*
X136133333Y-82861904D01*
X136209523Y-82823809D01*
X136247619Y-82785714D01*
X136285714Y-82709523D01*
X136285714Y-82633333D01*
X136247619Y-82557142D01*
X136209523Y-82519047D01*
X136133333Y-82480952D01*
X135980952Y-82442857D01*
X135904761Y-82404761D01*
X135866666Y-82366666D01*
X135828571Y-82290476D01*
X135828571Y-82214285D01*
X135866666Y-82138095D01*
X135904761Y-82100000D01*
X135980952Y-82061904D01*
X136171428Y-82061904D01*
X136285714Y-82100000D01*
X136552380Y-82328571D02*
X136704761Y-82861904D01*
X136857142Y-82480952D01*
X137009523Y-82861904D01*
X137161904Y-82328571D01*
X137466666Y-82861904D02*
X137466666Y-82328571D01*
X137466666Y-82061904D02*
X137428571Y-82100000D01*
X137466666Y-82138095D01*
X137504761Y-82100000D01*
X137466666Y-82061904D01*
X137466666Y-82138095D01*
X137733333Y-82328571D02*
X138038095Y-82328571D01*
X137847619Y-82061904D02*
X137847619Y-82747619D01*
X137885714Y-82823809D01*
X137961904Y-82861904D01*
X138038095Y-82861904D01*
X138647619Y-82823809D02*
X138571428Y-82861904D01*
X138419047Y-82861904D01*
X138342857Y-82823809D01*
X138304761Y-82785714D01*
X138266666Y-82709523D01*
X138266666Y-82480952D01*
X138304761Y-82404761D01*
X138342857Y-82366666D01*
X138419047Y-82328571D01*
X138571428Y-82328571D01*
X138647619Y-82366666D01*
X138990476Y-82861904D02*
X138990476Y-82061904D01*
X139333333Y-82861904D02*
X139333333Y-82442857D01*
X139295238Y-82366666D01*
X139219047Y-82328571D01*
X139104761Y-82328571D01*
X139028571Y-82366666D01*
X138990476Y-82404761D01*
X130266666Y-85252380D02*
X130190476Y-85214285D01*
X130038095Y-85214285D01*
X129961904Y-85252380D01*
X129885714Y-85328571D01*
X129847619Y-85404761D01*
X129847619Y-85557142D01*
X129885714Y-85633333D01*
X129961904Y-85709523D01*
X130038095Y-85747619D01*
X130190476Y-85747619D01*
X130266666Y-85709523D01*
X130114285Y-84947619D02*
X129923809Y-84985714D01*
X129733333Y-85100000D01*
X129619047Y-85290476D01*
X129580952Y-85480952D01*
X129619047Y-85671428D01*
X129733333Y-85861904D01*
X129923809Y-85976190D01*
X130114285Y-86014285D01*
X130304761Y-85976190D01*
X130495238Y-85861904D01*
X130609523Y-85671428D01*
X130647619Y-85480952D01*
X130609523Y-85290476D01*
X130495238Y-85100000D01*
X130304761Y-84985714D01*
X130114285Y-84947619D01*
X130952380Y-85138095D02*
X130990476Y-85100000D01*
X131066666Y-85061904D01*
X131257142Y-85061904D01*
X131333333Y-85100000D01*
X131371428Y-85138095D01*
X131409523Y-85214285D01*
X131409523Y-85290476D01*
X131371428Y-85404761D01*
X130914285Y-85861904D01*
X131409523Y-85861904D01*
X131904761Y-85061904D02*
X131980952Y-85061904D01*
X132057142Y-85100000D01*
X132095238Y-85138095D01*
X132133333Y-85214285D01*
X132171428Y-85366666D01*
X132171428Y-85557142D01*
X132133333Y-85709523D01*
X132095238Y-85785714D01*
X132057142Y-85823809D01*
X131980952Y-85861904D01*
X131904761Y-85861904D01*
X131828571Y-85823809D01*
X131790476Y-85785714D01*
X131752380Y-85709523D01*
X131714285Y-85557142D01*
X131714285Y-85366666D01*
X131752380Y-85214285D01*
X131790476Y-85138095D01*
X131828571Y-85100000D01*
X131904761Y-85061904D01*
X132476190Y-85138095D02*
X132514285Y-85100000D01*
X132590476Y-85061904D01*
X132780952Y-85061904D01*
X132857142Y-85100000D01*
X132895238Y-85138095D01*
X132933333Y-85214285D01*
X132933333Y-85290476D01*
X132895238Y-85404761D01*
X132438095Y-85861904D01*
X132933333Y-85861904D01*
X133695238Y-85861904D02*
X133238095Y-85861904D01*
X133466666Y-85861904D02*
X133466666Y-85061904D01*
X133390476Y-85176190D01*
X133314285Y-85252380D01*
X133238095Y-85290476D01*
X135714285Y-85861904D02*
X135447619Y-85480952D01*
X135257142Y-85861904D02*
X135257142Y-85061904D01*
X135561904Y-85061904D01*
X135638095Y-85100000D01*
X135676190Y-85138095D01*
X135714285Y-85214285D01*
X135714285Y-85328571D01*
X135676190Y-85404761D01*
X135638095Y-85442857D01*
X135561904Y-85480952D01*
X135257142Y-85480952D01*
X136361904Y-85823809D02*
X136285714Y-85861904D01*
X136133333Y-85861904D01*
X136057142Y-85823809D01*
X136019047Y-85747619D01*
X136019047Y-85442857D01*
X136057142Y-85366666D01*
X136133333Y-85328571D01*
X136285714Y-85328571D01*
X136361904Y-85366666D01*
X136400000Y-85442857D01*
X136400000Y-85519047D01*
X136019047Y-85595238D01*
X136666666Y-85328571D02*
X136857142Y-85861904D01*
X137047619Y-85328571D01*
X138228571Y-85442857D02*
X138342857Y-85480952D01*
X138380952Y-85519047D01*
X138419047Y-85595238D01*
X138419047Y-85709523D01*
X138380952Y-85785714D01*
X138342857Y-85823809D01*
X138266666Y-85861904D01*
X137961904Y-85861904D01*
X137961904Y-85061904D01*
X138228571Y-85061904D01*
X138304761Y-85100000D01*
X138342857Y-85138095D01*
X138380952Y-85214285D01*
X138380952Y-85290476D01*
X138342857Y-85366666D01*
X138304761Y-85404761D01*
X138228571Y-85442857D01*
X137961904Y-85442857D01*
X129866666Y-84361904D02*
X129866666Y-83561904D01*
X130133333Y-84133333D01*
X130400000Y-83561904D01*
X130400000Y-84361904D01*
X130780952Y-84361904D02*
X130780952Y-83561904D01*
X131047619Y-84133333D01*
X131314285Y-83561904D01*
X131314285Y-84361904D01*
X132152380Y-84285714D02*
X132114285Y-84323809D01*
X132000000Y-84361904D01*
X131923809Y-84361904D01*
X131809523Y-84323809D01*
X131733333Y-84247619D01*
X131695238Y-84171428D01*
X131657142Y-84019047D01*
X131657142Y-83904761D01*
X131695238Y-83752380D01*
X131733333Y-83676190D01*
X131809523Y-83600000D01*
X131923809Y-83561904D01*
X132000000Y-83561904D01*
X132114285Y-83600000D01*
X132152380Y-83638095D01*
X132952380Y-84285714D02*
X132914285Y-84323809D01*
X132800000Y-84361904D01*
X132723809Y-84361904D01*
X132609523Y-84323809D01*
X132533333Y-84247619D01*
X132495238Y-84171428D01*
X132457142Y-84019047D01*
X132457142Y-83904761D01*
X132495238Y-83752380D01*
X132533333Y-83676190D01*
X132609523Y-83600000D01*
X132723809Y-83561904D01*
X132800000Y-83561904D01*
X132914285Y-83600000D01*
X132952380Y-83638095D01*
X133904761Y-84361904D02*
X133904761Y-83561904D01*
X134095238Y-83561904D01*
X134209523Y-83600000D01*
X134285714Y-83676190D01*
X134323809Y-83752380D01*
X134361904Y-83904761D01*
X134361904Y-84019047D01*
X134323809Y-84171428D01*
X134285714Y-84247619D01*
X134209523Y-84323809D01*
X134095238Y-84361904D01*
X133904761Y-84361904D01*
X135009523Y-84323809D02*
X134933333Y-84361904D01*
X134780952Y-84361904D01*
X134704761Y-84323809D01*
X134666666Y-84247619D01*
X134666666Y-83942857D01*
X134704761Y-83866666D01*
X134780952Y-83828571D01*
X134933333Y-83828571D01*
X135009523Y-83866666D01*
X135047619Y-83942857D01*
X135047619Y-84019047D01*
X134666666Y-84095238D01*
X135352380Y-84323809D02*
X135428571Y-84361904D01*
X135580952Y-84361904D01*
X135657142Y-84323809D01*
X135695238Y-84247619D01*
X135695238Y-84209523D01*
X135657142Y-84133333D01*
X135580952Y-84095238D01*
X135466666Y-84095238D01*
X135390476Y-84057142D01*
X135352380Y-83980952D01*
X135352380Y-83942857D01*
X135390476Y-83866666D01*
X135466666Y-83828571D01*
X135580952Y-83828571D01*
X135657142Y-83866666D01*
X136038095Y-84361904D02*
X136038095Y-83828571D01*
X136038095Y-83561904D02*
X136000000Y-83600000D01*
X136038095Y-83638095D01*
X136076190Y-83600000D01*
X136038095Y-83561904D01*
X136038095Y-83638095D01*
X136761904Y-83828571D02*
X136761904Y-84476190D01*
X136723809Y-84552380D01*
X136685714Y-84590476D01*
X136609523Y-84628571D01*
X136495238Y-84628571D01*
X136419047Y-84590476D01*
X136761904Y-84323809D02*
X136685714Y-84361904D01*
X136533333Y-84361904D01*
X136457142Y-84323809D01*
X136419047Y-84285714D01*
X136380952Y-84209523D01*
X136380952Y-83980952D01*
X136419047Y-83904761D01*
X136457142Y-83866666D01*
X136533333Y-83828571D01*
X136685714Y-83828571D01*
X136761904Y-83866666D01*
X137142857Y-83828571D02*
X137142857Y-84361904D01*
X137142857Y-83904761D02*
X137180952Y-83866666D01*
X137257142Y-83828571D01*
X137371428Y-83828571D01*
X137447619Y-83866666D01*
X137485714Y-83942857D01*
X137485714Y-84361904D01*
X137828571Y-84323809D02*
X137904761Y-84361904D01*
X138057142Y-84361904D01*
X138133333Y-84323809D01*
X138171428Y-84247619D01*
X138171428Y-84209523D01*
X138133333Y-84133333D01*
X138057142Y-84095238D01*
X137942857Y-84095238D01*
X137866666Y-84057142D01*
X137828571Y-83980952D01*
X137828571Y-83942857D01*
X137866666Y-83866666D01*
X137942857Y-83828571D01*
X138057142Y-83828571D01*
X138133333Y-83866666D01*
D11*
%TO.C,SW2*%
X131800000Y-60580000D02*
X131800000Y-60700000D01*
X131800000Y-58430000D02*
X131800000Y-59570000D01*
X131800000Y-57300000D02*
X131800000Y-57420000D01*
X136200000Y-57300000D02*
X131800000Y-57300000D01*
X136200000Y-57420000D02*
X136200000Y-57300000D01*
X136200000Y-59570000D02*
X136200000Y-58430000D01*
X136200000Y-60700000D02*
X136200000Y-60580000D01*
X131800000Y-60700000D02*
X136200000Y-60700000D01*
%TO.C,SW1*%
X136200000Y-77420000D02*
X136200000Y-77300000D01*
X136200000Y-79570000D02*
X136200000Y-78430000D01*
X136200000Y-80700000D02*
X136200000Y-80580000D01*
X131800000Y-80700000D02*
X136200000Y-80700000D01*
X131800000Y-80580000D02*
X131800000Y-80700000D01*
X131800000Y-78430000D02*
X131800000Y-79570000D01*
X131800000Y-77300000D02*
X131800000Y-77420000D01*
X136200000Y-77300000D02*
X131800000Y-77300000D01*
%TO.C,SW2*%
D10*
X132666666Y-56904761D02*
X132809523Y-56952380D01*
X133047619Y-56952380D01*
X133142857Y-56904761D01*
X133190476Y-56857142D01*
X133238095Y-56761904D01*
X133238095Y-56666666D01*
X133190476Y-56571428D01*
X133142857Y-56523809D01*
X133047619Y-56476190D01*
X132857142Y-56428571D01*
X132761904Y-56380952D01*
X132714285Y-56333333D01*
X132666666Y-56238095D01*
X132666666Y-56142857D01*
X132714285Y-56047619D01*
X132761904Y-56000000D01*
X132857142Y-55952380D01*
X133095238Y-55952380D01*
X133238095Y-56000000D01*
X133571428Y-55952380D02*
X133809523Y-56952380D01*
X134000000Y-56238095D01*
X134190476Y-56952380D01*
X134428571Y-55952380D01*
X134761904Y-56047619D02*
X134809523Y-56000000D01*
X134904761Y-55952380D01*
X135142857Y-55952380D01*
X135238095Y-56000000D01*
X135285714Y-56047619D01*
X135333333Y-56142857D01*
X135333333Y-56238095D01*
X135285714Y-56380952D01*
X134714285Y-56952380D01*
X135333333Y-56952380D01*
%TO.C,SW1*%
X132666666Y-76904761D02*
X132809523Y-76952380D01*
X133047619Y-76952380D01*
X133142857Y-76904761D01*
X133190476Y-76857142D01*
X133238095Y-76761904D01*
X133238095Y-76666666D01*
X133190476Y-76571428D01*
X133142857Y-76523809D01*
X133047619Y-76476190D01*
X132857142Y-76428571D01*
X132761904Y-76380952D01*
X132714285Y-76333333D01*
X132666666Y-76238095D01*
X132666666Y-76142857D01*
X132714285Y-76047619D01*
X132761904Y-76000000D01*
X132857142Y-75952380D01*
X133095238Y-75952380D01*
X133238095Y-76000000D01*
X133571428Y-75952380D02*
X133809523Y-76952380D01*
X134000000Y-76238095D01*
X134190476Y-76952380D01*
X134428571Y-75952380D01*
X135333333Y-76952380D02*
X134761904Y-76952380D01*
X135047619Y-76952380D02*
X135047619Y-75952380D01*
X134952380Y-76095238D01*
X134857142Y-76190476D01*
X134761904Y-76238095D01*
%TD*%
M02*
