%TF.GenerationSoftware,KiCad,Pcbnew,(5.1.6-0-10_14)*%
%TF.CreationDate,2022-05-10T09:10:30-04:00*%
%TF.ProjectId,Delay_Door_Switch-RevB,44656c61-795f-4446-9f6f-725f53776974,rev?*%
%TF.SameCoordinates,Original*%
%TF.FileFunction,Soldermask,Top*%
%TF.FilePolarity,Negative*%
%FSLAX46Y46*%
G04 Gerber Fmt 4.6, Leading zero omitted, Abs format (unit mm)*
G04 Created by KiCad (PCBNEW (5.1.6-0-10_14)) date 2022-05-10 09:10:30*
%MOMM*%
%LPD*%
G01*
G04 APERTURE LIST*
%ADD10O,2.100000X2.700000*%
%ADD11C,1.500000*%
%ADD12C,1.300000*%
G04 APERTURE END LIST*
%TO.C,SW2*%
G36*
G01*
X132500000Y-57662500D02*
X132500000Y-58187500D01*
G75*
G02*
X132387500Y-58300000I-112500J0D01*
G01*
X131462500Y-58300000D01*
G75*
G02*
X131350000Y-58187500I0J112500D01*
G01*
X131350000Y-57662500D01*
G75*
G02*
X131462500Y-57550000I112500J0D01*
G01*
X132387500Y-57550000D01*
G75*
G02*
X132500000Y-57662500I0J-112500D01*
G01*
G37*
G36*
G01*
X136650000Y-57662500D02*
X136650000Y-58187500D01*
G75*
G02*
X136537500Y-58300000I-112500J0D01*
G01*
X135612500Y-58300000D01*
G75*
G02*
X135500000Y-58187500I0J112500D01*
G01*
X135500000Y-57662500D01*
G75*
G02*
X135612500Y-57550000I112500J0D01*
G01*
X136537500Y-57550000D01*
G75*
G02*
X136650000Y-57662500I0J-112500D01*
G01*
G37*
G36*
G01*
X132500000Y-59812500D02*
X132500000Y-60337500D01*
G75*
G02*
X132387500Y-60450000I-112500J0D01*
G01*
X131462500Y-60450000D01*
G75*
G02*
X131350000Y-60337500I0J112500D01*
G01*
X131350000Y-59812500D01*
G75*
G02*
X131462500Y-59700000I112500J0D01*
G01*
X132387500Y-59700000D01*
G75*
G02*
X132500000Y-59812500I0J-112500D01*
G01*
G37*
G36*
G01*
X136650000Y-59812500D02*
X136650000Y-60337500D01*
G75*
G02*
X136537500Y-60450000I-112500J0D01*
G01*
X135612500Y-60450000D01*
G75*
G02*
X135500000Y-60337500I0J112500D01*
G01*
X135500000Y-59812500D01*
G75*
G02*
X135612500Y-59700000I112500J0D01*
G01*
X136537500Y-59700000D01*
G75*
G02*
X136650000Y-59812500I0J-112500D01*
G01*
G37*
%TD*%
%TO.C,SW1*%
G36*
G01*
X135500000Y-80337500D02*
X135500000Y-79812500D01*
G75*
G02*
X135612500Y-79700000I112500J0D01*
G01*
X136537500Y-79700000D01*
G75*
G02*
X136650000Y-79812500I0J-112500D01*
G01*
X136650000Y-80337500D01*
G75*
G02*
X136537500Y-80450000I-112500J0D01*
G01*
X135612500Y-80450000D01*
G75*
G02*
X135500000Y-80337500I0J112500D01*
G01*
G37*
G36*
G01*
X131350000Y-80337500D02*
X131350000Y-79812500D01*
G75*
G02*
X131462500Y-79700000I112500J0D01*
G01*
X132387500Y-79700000D01*
G75*
G02*
X132500000Y-79812500I0J-112500D01*
G01*
X132500000Y-80337500D01*
G75*
G02*
X132387500Y-80450000I-112500J0D01*
G01*
X131462500Y-80450000D01*
G75*
G02*
X131350000Y-80337500I0J112500D01*
G01*
G37*
G36*
G01*
X135500000Y-78187500D02*
X135500000Y-77662500D01*
G75*
G02*
X135612500Y-77550000I112500J0D01*
G01*
X136537500Y-77550000D01*
G75*
G02*
X136650000Y-77662500I0J-112500D01*
G01*
X136650000Y-78187500D01*
G75*
G02*
X136537500Y-78300000I-112500J0D01*
G01*
X135612500Y-78300000D01*
G75*
G02*
X135500000Y-78187500I0J112500D01*
G01*
G37*
G36*
G01*
X131350000Y-78187500D02*
X131350000Y-77662500D01*
G75*
G02*
X131462500Y-77550000I112500J0D01*
G01*
X132387500Y-77550000D01*
G75*
G02*
X132500000Y-77662500I0J-112500D01*
G01*
X132500000Y-78187500D01*
G75*
G02*
X132387500Y-78300000I-112500J0D01*
G01*
X131462500Y-78300000D01*
G75*
G02*
X131350000Y-78187500I0J112500D01*
G01*
G37*
%TD*%
D10*
%TO.C,J1*%
X127760000Y-53300000D03*
G36*
G01*
X131350000Y-52475000D02*
X131350000Y-54125000D01*
G75*
G02*
X130825000Y-54650000I-525000J0D01*
G01*
X129775000Y-54650000D01*
G75*
G02*
X129250000Y-54125000I0J525000D01*
G01*
X129250000Y-52475000D01*
G75*
G02*
X129775000Y-51950000I525000J0D01*
G01*
X130825000Y-51950000D01*
G75*
G02*
X131350000Y-52475000I0J-525000D01*
G01*
G37*
%TD*%
D11*
%TO.C,BT1*%
X134000000Y-80400000D03*
D12*
X134000000Y-72900000D03*
%TD*%
M02*
