M48
; DRILL file {KiCad (5.1.6-0-10_14)} date Tuesday, May 10, 2022 at 09:11:19 AM
; FORMAT={-:-/ absolute / inch / decimal}
; #@! TF.CreationDate,2022-05-10T09:11:19-04:00
; #@! TF.GenerationSoftware,Kicad,Pcbnew,(5.1.6-0-10_14)
FMAT,2
INCH
T1C0.0157
T2C0.0512
T3C0.0472
T4C0.0551
%
G90
G05
T1
X4.9705Y-2.9134
X4.9921Y-2.5787
X5.0Y-3.3858
X5.1181Y-3.1693
X5.1398Y-2.6378
X5.2008Y-2.6398
X5.2008Y-2.6998
X5.2008Y-2.7598
X5.2126Y-3.189
X5.2579Y-2.1265
X5.2756Y-3.0679
X5.2776Y-2.0551
X5.3386Y-3.189
X5.3504Y-2.6398
X5.3504Y-2.6998
X5.3504Y-2.7598
X5.3701Y-2.5591
X5.4331Y-3.1693
X5.4724Y-2.5906
X5.4724Y-2.6944
X5.4921Y-2.313
X5.5236Y-2.2362
X5.5512Y-3.3858
X5.5748Y-2.4567
X5.5807Y-2.0177
X5.5807Y-2.9134
T2
X5.0299Y-2.0984
X5.1299Y-2.0984
T3
X5.2756Y-2.8701
T4
X5.2756Y-3.1654
T0
M30
