%TF.GenerationSoftware,KiCad,Pcbnew,(5.1.6-0-10_14)*%
%TF.CreationDate,2022-05-10T09:10:30-04:00*%
%TF.ProjectId,Delay_Door_Switch-RevB,44656c61-795f-4446-9f6f-725f53776974,rev?*%
%TF.SameCoordinates,Original*%
%TF.FileFunction,Soldermask,Bot*%
%TF.FilePolarity,Negative*%
%FSLAX46Y46*%
G04 Gerber Fmt 4.6, Leading zero omitted, Abs format (unit mm)*
G04 Created by KiCad (PCBNEW (5.1.6-0-10_14)) date 2022-05-10 09:10:30*
%MOMM*%
%LPD*%
G01*
G04 APERTURE LIST*
%ADD10O,2.100000X2.700000*%
%ADD11C,1.500000*%
%ADD12C,1.300000*%
G04 APERTURE END LIST*
%TO.C,U3*%
G36*
G01*
X128387500Y-67670000D02*
X128912500Y-67670000D01*
G75*
G02*
X129025000Y-67782500I0J-112500D01*
G01*
X129025000Y-68717500D01*
G75*
G02*
X128912500Y-68830000I-112500J0D01*
G01*
X128387500Y-68830000D01*
G75*
G02*
X128275000Y-68717500I0J112500D01*
G01*
X128275000Y-67782500D01*
G75*
G02*
X128387500Y-67670000I112500J0D01*
G01*
G37*
G36*
G01*
X130287500Y-67670000D02*
X130812500Y-67670000D01*
G75*
G02*
X130925000Y-67782500I0J-112500D01*
G01*
X130925000Y-68717500D01*
G75*
G02*
X130812500Y-68830000I-112500J0D01*
G01*
X130287500Y-68830000D01*
G75*
G02*
X130175000Y-68717500I0J112500D01*
G01*
X130175000Y-67782500D01*
G75*
G02*
X130287500Y-67670000I112500J0D01*
G01*
G37*
G36*
G01*
X130287500Y-65470000D02*
X130812500Y-65470000D01*
G75*
G02*
X130925000Y-65582500I0J-112500D01*
G01*
X130925000Y-66517500D01*
G75*
G02*
X130812500Y-66630000I-112500J0D01*
G01*
X130287500Y-66630000D01*
G75*
G02*
X130175000Y-66517500I0J112500D01*
G01*
X130175000Y-65582500D01*
G75*
G02*
X130287500Y-65470000I112500J0D01*
G01*
G37*
G36*
G01*
X129337500Y-65470000D02*
X129862500Y-65470000D01*
G75*
G02*
X129975000Y-65582500I0J-112500D01*
G01*
X129975000Y-66517500D01*
G75*
G02*
X129862500Y-66630000I-112500J0D01*
G01*
X129337500Y-66630000D01*
G75*
G02*
X129225000Y-66517500I0J112500D01*
G01*
X129225000Y-65582500D01*
G75*
G02*
X129337500Y-65470000I112500J0D01*
G01*
G37*
G36*
G01*
X128387500Y-65470000D02*
X128912500Y-65470000D01*
G75*
G02*
X129025000Y-65582500I0J-112500D01*
G01*
X129025000Y-66517500D01*
G75*
G02*
X128912500Y-66630000I-112500J0D01*
G01*
X128387500Y-66630000D01*
G75*
G02*
X128275000Y-66517500I0J112500D01*
G01*
X128275000Y-65582500D01*
G75*
G02*
X128387500Y-65470000I112500J0D01*
G01*
G37*
%TD*%
%TO.C,U1*%
G36*
G01*
X139262500Y-63230000D02*
X138737500Y-63230000D01*
G75*
G02*
X138625000Y-63117500I0J112500D01*
G01*
X138625000Y-62182500D01*
G75*
G02*
X138737500Y-62070000I112500J0D01*
G01*
X139262500Y-62070000D01*
G75*
G02*
X139375000Y-62182500I0J-112500D01*
G01*
X139375000Y-63117500D01*
G75*
G02*
X139262500Y-63230000I-112500J0D01*
G01*
G37*
G36*
G01*
X140212500Y-63230000D02*
X139687500Y-63230000D01*
G75*
G02*
X139575000Y-63117500I0J112500D01*
G01*
X139575000Y-62182500D01*
G75*
G02*
X139687500Y-62070000I112500J0D01*
G01*
X140212500Y-62070000D01*
G75*
G02*
X140325000Y-62182500I0J-112500D01*
G01*
X140325000Y-63117500D01*
G75*
G02*
X140212500Y-63230000I-112500J0D01*
G01*
G37*
G36*
G01*
X138312500Y-63230000D02*
X137787500Y-63230000D01*
G75*
G02*
X137675000Y-63117500I0J112500D01*
G01*
X137675000Y-62182500D01*
G75*
G02*
X137787500Y-62070000I112500J0D01*
G01*
X138312500Y-62070000D01*
G75*
G02*
X138425000Y-62182500I0J-112500D01*
G01*
X138425000Y-63117500D01*
G75*
G02*
X138312500Y-63230000I-112500J0D01*
G01*
G37*
G36*
G01*
X138312500Y-65430000D02*
X137787500Y-65430000D01*
G75*
G02*
X137675000Y-65317500I0J112500D01*
G01*
X137675000Y-64382500D01*
G75*
G02*
X137787500Y-64270000I112500J0D01*
G01*
X138312500Y-64270000D01*
G75*
G02*
X138425000Y-64382500I0J-112500D01*
G01*
X138425000Y-65317500D01*
G75*
G02*
X138312500Y-65430000I-112500J0D01*
G01*
G37*
G36*
G01*
X139262500Y-65430000D02*
X138737500Y-65430000D01*
G75*
G02*
X138625000Y-65317500I0J112500D01*
G01*
X138625000Y-64382500D01*
G75*
G02*
X138737500Y-64270000I112500J0D01*
G01*
X139262500Y-64270000D01*
G75*
G02*
X139375000Y-64382500I0J-112500D01*
G01*
X139375000Y-65317500D01*
G75*
G02*
X139262500Y-65430000I-112500J0D01*
G01*
G37*
G36*
G01*
X140212500Y-65430000D02*
X139687500Y-65430000D01*
G75*
G02*
X139575000Y-65317500I0J112500D01*
G01*
X139575000Y-64382500D01*
G75*
G02*
X139687500Y-64270000I112500J0D01*
G01*
X140212500Y-64270000D01*
G75*
G02*
X140325000Y-64382500I0J-112500D01*
G01*
X140325000Y-65317500D01*
G75*
G02*
X140212500Y-65430000I-112500J0D01*
G01*
G37*
%TD*%
%TO.C,D1*%
G36*
G01*
X135120000Y-58100000D02*
X134280000Y-58100000D01*
G75*
G02*
X134100000Y-57920000I0J180000D01*
G01*
X134100000Y-57080000D01*
G75*
G02*
X134280000Y-56900000I180000J0D01*
G01*
X135120000Y-56900000D01*
G75*
G02*
X135300000Y-57080000I0J-180000D01*
G01*
X135300000Y-57920000D01*
G75*
G02*
X135120000Y-58100000I-180000J0D01*
G01*
G37*
G36*
G01*
X135120000Y-60900000D02*
X134280000Y-60900000D01*
G75*
G02*
X134100000Y-60720000I0J180000D01*
G01*
X134100000Y-59880000D01*
G75*
G02*
X134280000Y-59700000I180000J0D01*
G01*
X135120000Y-59700000D01*
G75*
G02*
X135300000Y-59880000I0J-180000D01*
G01*
X135300000Y-60720000D01*
G75*
G02*
X135120000Y-60900000I-180000J0D01*
G01*
G37*
%TD*%
%TO.C,U2*%
G36*
G01*
X139000000Y-53657500D02*
X139000000Y-55042500D01*
G75*
G02*
X138917500Y-55125000I-82500J0D01*
G01*
X138532500Y-55125000D01*
G75*
G02*
X138450000Y-55042500I0J82500D01*
G01*
X138450000Y-53657500D01*
G75*
G02*
X138532500Y-53575000I82500J0D01*
G01*
X138917500Y-53575000D01*
G75*
G02*
X139000000Y-53657500I0J-82500D01*
G01*
G37*
G36*
G01*
X138350000Y-53657500D02*
X138350000Y-55042500D01*
G75*
G02*
X138267500Y-55125000I-82500J0D01*
G01*
X137882500Y-55125000D01*
G75*
G02*
X137800000Y-55042500I0J82500D01*
G01*
X137800000Y-53657500D01*
G75*
G02*
X137882500Y-53575000I82500J0D01*
G01*
X138267500Y-53575000D01*
G75*
G02*
X138350000Y-53657500I0J-82500D01*
G01*
G37*
G36*
G01*
X137700000Y-53657500D02*
X137700000Y-55042500D01*
G75*
G02*
X137617500Y-55125000I-82500J0D01*
G01*
X137232500Y-55125000D01*
G75*
G02*
X137150000Y-55042500I0J82500D01*
G01*
X137150000Y-53657500D01*
G75*
G02*
X137232500Y-53575000I82500J0D01*
G01*
X137617500Y-53575000D01*
G75*
G02*
X137700000Y-53657500I0J-82500D01*
G01*
G37*
G36*
G01*
X137050000Y-53657500D02*
X137050000Y-55042500D01*
G75*
G02*
X136967500Y-55125000I-82500J0D01*
G01*
X136582500Y-55125000D01*
G75*
G02*
X136500000Y-55042500I0J82500D01*
G01*
X136500000Y-53657500D01*
G75*
G02*
X136582500Y-53575000I82500J0D01*
G01*
X136967500Y-53575000D01*
G75*
G02*
X137050000Y-53657500I0J-82500D01*
G01*
G37*
G36*
G01*
X137050000Y-58057500D02*
X137050000Y-59442500D01*
G75*
G02*
X136967500Y-59525000I-82500J0D01*
G01*
X136582500Y-59525000D01*
G75*
G02*
X136500000Y-59442500I0J82500D01*
G01*
X136500000Y-58057500D01*
G75*
G02*
X136582500Y-57975000I82500J0D01*
G01*
X136967500Y-57975000D01*
G75*
G02*
X137050000Y-58057500I0J-82500D01*
G01*
G37*
G36*
G01*
X137700000Y-58057500D02*
X137700000Y-59442500D01*
G75*
G02*
X137617500Y-59525000I-82500J0D01*
G01*
X137232500Y-59525000D01*
G75*
G02*
X137150000Y-59442500I0J82500D01*
G01*
X137150000Y-58057500D01*
G75*
G02*
X137232500Y-57975000I82500J0D01*
G01*
X137617500Y-57975000D01*
G75*
G02*
X137700000Y-58057500I0J-82500D01*
G01*
G37*
G36*
G01*
X138350000Y-58057500D02*
X138350000Y-59442500D01*
G75*
G02*
X138267500Y-59525000I-82500J0D01*
G01*
X137882500Y-59525000D01*
G75*
G02*
X137800000Y-59442500I0J82500D01*
G01*
X137800000Y-58057500D01*
G75*
G02*
X137882500Y-57975000I82500J0D01*
G01*
X138267500Y-57975000D01*
G75*
G02*
X138350000Y-58057500I0J-82500D01*
G01*
G37*
G36*
G01*
X139000000Y-58057500D02*
X139000000Y-59442500D01*
G75*
G02*
X138917500Y-59525000I-82500J0D01*
G01*
X138532500Y-59525000D01*
G75*
G02*
X138450000Y-59442500I0J82500D01*
G01*
X138450000Y-58057500D01*
G75*
G02*
X138532500Y-57975000I82500J0D01*
G01*
X138917500Y-57975000D01*
G75*
G02*
X139000000Y-58057500I0J-82500D01*
G01*
G37*
%TD*%
D10*
%TO.C,J1*%
X127760000Y-53300000D03*
G36*
G01*
X131350000Y-52475000D02*
X131350000Y-54125000D01*
G75*
G02*
X130825000Y-54650000I-525000J0D01*
G01*
X129775000Y-54650000D01*
G75*
G02*
X129250000Y-54125000I0J525000D01*
G01*
X129250000Y-52475000D01*
G75*
G02*
X129775000Y-51950000I525000J0D01*
G01*
X130825000Y-51950000D01*
G75*
G02*
X131350000Y-52475000I0J-525000D01*
G01*
G37*
%TD*%
%TO.C,U4*%
G36*
G01*
X130525000Y-58650000D02*
X130075000Y-58650000D01*
G75*
G02*
X129850000Y-58425000I0J225000D01*
G01*
X129850000Y-57325000D01*
G75*
G02*
X130075000Y-57100000I225000J0D01*
G01*
X130525000Y-57100000D01*
G75*
G02*
X130750000Y-57325000I0J-225000D01*
G01*
X130750000Y-58425000D01*
G75*
G02*
X130525000Y-58650000I-225000J0D01*
G01*
G37*
G36*
G01*
X127985000Y-58650000D02*
X127535000Y-58650000D01*
G75*
G02*
X127310000Y-58425000I0J225000D01*
G01*
X127310000Y-57325000D01*
G75*
G02*
X127535000Y-57100000I225000J0D01*
G01*
X127985000Y-57100000D01*
G75*
G02*
X128210000Y-57325000I0J-225000D01*
G01*
X128210000Y-58425000D01*
G75*
G02*
X127985000Y-58650000I-225000J0D01*
G01*
G37*
G36*
G01*
X127985000Y-64900000D02*
X127535000Y-64900000D01*
G75*
G02*
X127310000Y-64675000I0J225000D01*
G01*
X127310000Y-63575000D01*
G75*
G02*
X127535000Y-63350000I225000J0D01*
G01*
X127985000Y-63350000D01*
G75*
G02*
X128210000Y-63575000I0J-225000D01*
G01*
X128210000Y-64675000D01*
G75*
G02*
X127985000Y-64900000I-225000J0D01*
G01*
G37*
G36*
G01*
X130525000Y-64900000D02*
X130075000Y-64900000D01*
G75*
G02*
X129850000Y-64675000I0J225000D01*
G01*
X129850000Y-63575000D01*
G75*
G02*
X130075000Y-63350000I225000J0D01*
G01*
X130525000Y-63350000D01*
G75*
G02*
X130750000Y-63575000I0J-225000D01*
G01*
X130750000Y-64675000D01*
G75*
G02*
X130525000Y-64900000I-225000J0D01*
G01*
G37*
%TD*%
D11*
%TO.C,BT1*%
X134000000Y-80400000D03*
D12*
X134000000Y-72900000D03*
G36*
G01*
X132840000Y-82175000D02*
X135160000Y-82175000D01*
G75*
G02*
X135450000Y-82465000I0J-290000D01*
G01*
X135450000Y-86385000D01*
G75*
G02*
X135160000Y-86675000I-290000J0D01*
G01*
X132840000Y-86675000D01*
G75*
G02*
X132550000Y-86385000I0J290000D01*
G01*
X132550000Y-82465000D01*
G75*
G02*
X132840000Y-82175000I290000J0D01*
G01*
G37*
G36*
G01*
X132840000Y-66325000D02*
X135160000Y-66325000D01*
G75*
G02*
X135450000Y-66615000I0J-290000D01*
G01*
X135450000Y-70535000D01*
G75*
G02*
X135160000Y-70825000I-290000J0D01*
G01*
X132840000Y-70825000D01*
G75*
G02*
X132550000Y-70535000I0J290000D01*
G01*
X132550000Y-66615000D01*
G75*
G02*
X132840000Y-66325000I290000J0D01*
G01*
G37*
%TD*%
%TO.C,R5*%
G36*
G01*
X136118750Y-63700000D02*
X136681250Y-63700000D01*
G75*
G02*
X136925000Y-63943750I0J-243750D01*
G01*
X136925000Y-64431250D01*
G75*
G02*
X136681250Y-64675000I-243750J0D01*
G01*
X136118750Y-64675000D01*
G75*
G02*
X135875000Y-64431250I0J243750D01*
G01*
X135875000Y-63943750D01*
G75*
G02*
X136118750Y-63700000I243750J0D01*
G01*
G37*
G36*
G01*
X136118750Y-62125000D02*
X136681250Y-62125000D01*
G75*
G02*
X136925000Y-62368750I0J-243750D01*
G01*
X136925000Y-62856250D01*
G75*
G02*
X136681250Y-63100000I-243750J0D01*
G01*
X136118750Y-63100000D01*
G75*
G02*
X135875000Y-62856250I0J243750D01*
G01*
X135875000Y-62368750D01*
G75*
G02*
X136118750Y-62125000I243750J0D01*
G01*
G37*
%TD*%
%TO.C,R4*%
G36*
G01*
X133881250Y-62500000D02*
X133318750Y-62500000D01*
G75*
G02*
X133075000Y-62256250I0J243750D01*
G01*
X133075000Y-61768750D01*
G75*
G02*
X133318750Y-61525000I243750J0D01*
G01*
X133881250Y-61525000D01*
G75*
G02*
X134125000Y-61768750I0J-243750D01*
G01*
X134125000Y-62256250D01*
G75*
G02*
X133881250Y-62500000I-243750J0D01*
G01*
G37*
G36*
G01*
X133881250Y-64075000D02*
X133318750Y-64075000D01*
G75*
G02*
X133075000Y-63831250I0J243750D01*
G01*
X133075000Y-63343750D01*
G75*
G02*
X133318750Y-63100000I243750J0D01*
G01*
X133881250Y-63100000D01*
G75*
G02*
X134125000Y-63343750I0J-243750D01*
G01*
X134125000Y-63831250D01*
G75*
G02*
X133881250Y-64075000I-243750J0D01*
G01*
G37*
%TD*%
%TO.C,R3*%
G36*
G01*
X139618750Y-67950000D02*
X140181250Y-67950000D01*
G75*
G02*
X140425000Y-68193750I0J-243750D01*
G01*
X140425000Y-68681250D01*
G75*
G02*
X140181250Y-68925000I-243750J0D01*
G01*
X139618750Y-68925000D01*
G75*
G02*
X139375000Y-68681250I0J243750D01*
G01*
X139375000Y-68193750D01*
G75*
G02*
X139618750Y-67950000I243750J0D01*
G01*
G37*
G36*
G01*
X139618750Y-66375000D02*
X140181250Y-66375000D01*
G75*
G02*
X140425000Y-66618750I0J-243750D01*
G01*
X140425000Y-67106250D01*
G75*
G02*
X140181250Y-67350000I-243750J0D01*
G01*
X139618750Y-67350000D01*
G75*
G02*
X139375000Y-67106250I0J243750D01*
G01*
X139375000Y-66618750D01*
G75*
G02*
X139618750Y-66375000I243750J0D01*
G01*
G37*
%TD*%
%TO.C,R2*%
G36*
G01*
X137818750Y-67950000D02*
X138381250Y-67950000D01*
G75*
G02*
X138625000Y-68193750I0J-243750D01*
G01*
X138625000Y-68681250D01*
G75*
G02*
X138381250Y-68925000I-243750J0D01*
G01*
X137818750Y-68925000D01*
G75*
G02*
X137575000Y-68681250I0J243750D01*
G01*
X137575000Y-68193750D01*
G75*
G02*
X137818750Y-67950000I243750J0D01*
G01*
G37*
G36*
G01*
X137818750Y-66375000D02*
X138381250Y-66375000D01*
G75*
G02*
X138625000Y-66618750I0J-243750D01*
G01*
X138625000Y-67106250D01*
G75*
G02*
X138381250Y-67350000I-243750J0D01*
G01*
X137818750Y-67350000D01*
G75*
G02*
X137575000Y-67106250I0J243750D01*
G01*
X137575000Y-66618750D01*
G75*
G02*
X137818750Y-66375000I243750J0D01*
G01*
G37*
%TD*%
%TO.C,R1*%
G36*
G01*
X138450000Y-51918750D02*
X138450000Y-52481250D01*
G75*
G02*
X138206250Y-52725000I-243750J0D01*
G01*
X137718750Y-52725000D01*
G75*
G02*
X137475000Y-52481250I0J243750D01*
G01*
X137475000Y-51918750D01*
G75*
G02*
X137718750Y-51675000I243750J0D01*
G01*
X138206250Y-51675000D01*
G75*
G02*
X138450000Y-51918750I0J-243750D01*
G01*
G37*
G36*
G01*
X140025000Y-51918750D02*
X140025000Y-52481250D01*
G75*
G02*
X139781250Y-52725000I-243750J0D01*
G01*
X139293750Y-52725000D01*
G75*
G02*
X139050000Y-52481250I0J243750D01*
G01*
X139050000Y-51918750D01*
G75*
G02*
X139293750Y-51675000I243750J0D01*
G01*
X139781250Y-51675000D01*
G75*
G02*
X140025000Y-51918750I0J-243750D01*
G01*
G37*
%TD*%
%TO.C,C5*%
G36*
G01*
X127281250Y-66900000D02*
X126318750Y-66900000D01*
G75*
G02*
X126050000Y-66631250I0J268750D01*
G01*
X126050000Y-66093750D01*
G75*
G02*
X126318750Y-65825000I268750J0D01*
G01*
X127281250Y-65825000D01*
G75*
G02*
X127550000Y-66093750I0J-268750D01*
G01*
X127550000Y-66631250D01*
G75*
G02*
X127281250Y-66900000I-268750J0D01*
G01*
G37*
G36*
G01*
X127281250Y-68775000D02*
X126318750Y-68775000D01*
G75*
G02*
X126050000Y-68506250I0J268750D01*
G01*
X126050000Y-67968750D01*
G75*
G02*
X126318750Y-67700000I268750J0D01*
G01*
X127281250Y-67700000D01*
G75*
G02*
X127550000Y-67968750I0J-268750D01*
G01*
X127550000Y-68506250D01*
G75*
G02*
X127281250Y-68775000I-268750J0D01*
G01*
G37*
%TD*%
%TO.C,C4*%
G36*
G01*
X135400000Y-51918750D02*
X135400000Y-52481250D01*
G75*
G02*
X135156250Y-52725000I-243750J0D01*
G01*
X134668750Y-52725000D01*
G75*
G02*
X134425000Y-52481250I0J243750D01*
G01*
X134425000Y-51918750D01*
G75*
G02*
X134668750Y-51675000I243750J0D01*
G01*
X135156250Y-51675000D01*
G75*
G02*
X135400000Y-51918750I0J-243750D01*
G01*
G37*
G36*
G01*
X136975000Y-51918750D02*
X136975000Y-52481250D01*
G75*
G02*
X136731250Y-52725000I-243750J0D01*
G01*
X136243750Y-52725000D01*
G75*
G02*
X136000000Y-52481250I0J243750D01*
G01*
X136000000Y-51918750D01*
G75*
G02*
X136243750Y-51675000I243750J0D01*
G01*
X136731250Y-51675000D01*
G75*
G02*
X136975000Y-51918750I0J-243750D01*
G01*
G37*
%TD*%
%TO.C,C3*%
G36*
G01*
X140018750Y-55450000D02*
X140581250Y-55450000D01*
G75*
G02*
X140825000Y-55693750I0J-243750D01*
G01*
X140825000Y-56181250D01*
G75*
G02*
X140581250Y-56425000I-243750J0D01*
G01*
X140018750Y-56425000D01*
G75*
G02*
X139775000Y-56181250I0J243750D01*
G01*
X139775000Y-55693750D01*
G75*
G02*
X140018750Y-55450000I243750J0D01*
G01*
G37*
G36*
G01*
X140018750Y-53875000D02*
X140581250Y-53875000D01*
G75*
G02*
X140825000Y-54118750I0J-243750D01*
G01*
X140825000Y-54606250D01*
G75*
G02*
X140581250Y-54850000I-243750J0D01*
G01*
X140018750Y-54850000D01*
G75*
G02*
X139775000Y-54606250I0J243750D01*
G01*
X139775000Y-54118750D01*
G75*
G02*
X140018750Y-53875000I243750J0D01*
G01*
G37*
%TD*%
%TO.C,C2*%
G36*
G01*
X141881250Y-63700000D02*
X141318750Y-63700000D01*
G75*
G02*
X141075000Y-63456250I0J243750D01*
G01*
X141075000Y-62968750D01*
G75*
G02*
X141318750Y-62725000I243750J0D01*
G01*
X141881250Y-62725000D01*
G75*
G02*
X142125000Y-62968750I0J-243750D01*
G01*
X142125000Y-63456250D01*
G75*
G02*
X141881250Y-63700000I-243750J0D01*
G01*
G37*
G36*
G01*
X141881250Y-65275000D02*
X141318750Y-65275000D01*
G75*
G02*
X141075000Y-65031250I0J243750D01*
G01*
X141075000Y-64543750D01*
G75*
G02*
X141318750Y-64300000I243750J0D01*
G01*
X141881250Y-64300000D01*
G75*
G02*
X142125000Y-64543750I0J-243750D01*
G01*
X142125000Y-65031250D01*
G75*
G02*
X141881250Y-65275000I-243750J0D01*
G01*
G37*
%TD*%
%TO.C,C1*%
G36*
G01*
X135181250Y-54550000D02*
X134218750Y-54550000D01*
G75*
G02*
X133950000Y-54281250I0J268750D01*
G01*
X133950000Y-53743750D01*
G75*
G02*
X134218750Y-53475000I268750J0D01*
G01*
X135181250Y-53475000D01*
G75*
G02*
X135450000Y-53743750I0J-268750D01*
G01*
X135450000Y-54281250D01*
G75*
G02*
X135181250Y-54550000I-268750J0D01*
G01*
G37*
G36*
G01*
X135181250Y-56425000D02*
X134218750Y-56425000D01*
G75*
G02*
X133950000Y-56156250I0J268750D01*
G01*
X133950000Y-55618750D01*
G75*
G02*
X134218750Y-55350000I268750J0D01*
G01*
X135181250Y-55350000D01*
G75*
G02*
X135450000Y-55618750I0J-268750D01*
G01*
X135450000Y-56156250D01*
G75*
G02*
X135181250Y-56425000I-268750J0D01*
G01*
G37*
%TD*%
M02*
